<svg xmlns="http://www.w3.org/2000/svg" viewBox="0 0 307.7 266.75"><defs><style>.cls-1{fill:#fff;}</style></defs><title>Asset 3</title><g id="Layer_2" data-name="Layer 2"><g id="Layer_1-2" data-name="Layer 1"><polygon class="cls-1" points="152.37 23.7 176.08 0 177.49 0 153.78 23.7 152.37 23.7"/><polygon class="cls-1" points="146.03 23.7 169.74 0 171.15 0 147.44 23.7 146.03 23.7"/><polygon class="cls-1" points="165.54 23.7 189.25 0 307.7 0 307.7 23.7 165.54 23.7"/><polygon class="cls-1" points="158.6 23.7 182.3 0 183.71 0 160.01 23.7 158.6 23.7"/><path class="cls-1" d="M306.7,24.7V265.75H1V24.7H306.7m1-1H0V266.75H307.7V23.7Z"/><path class="cls-1" d="M167.65,131.39a124.2,124.2,0,0,1,12.62-5.9c8.27-19.9.83-20.83.83-20.83-6.31,2.25-12.31,7-17.53,12.29A69.67,69.67,0,0,1,167.65,131.39Z"/><path class="cls-1" d="M201.38,182.93c-10.25-3.91-21.95-18.07-25-21.88a1.11,1.11,0,0,1,.25-1.61C211,136,207.52,126.19,206.13,124.13a1.1,1.1,0,0,0-.8-.48c-.92-.09-1.87-.13-2.82-.13-13.09,0-28.95,8.07-35.8,11.92a1.11,1.11,0,0,1-1.65-.8c-3.66-23.44-12.18-29.78-20.08-29.78-5.78,0-11.23,3.39-14.19,6-5.88,5.1-10.11,10.82-12.06,25.78a1.22,1.22,0,0,1-.23.55L101.13,159a1.6,1.6,0,0,0,1.23,2.61,1.56,1.56,0,0,0,1-.4L121,146.69a1.12,1.12,0,0,1,.71-.25,1.08,1.08,0,0,1,.91.48c22.58,32.94,50.77,38.87,68.15,38.87a72.55,72.55,0,0,0,10.34-.72A1.11,1.11,0,0,0,201.38,182.93Zm-67.56-50.69a3.25,3.25,0,1,1,1-4.5A3.25,3.25,0,0,1,133.82,132.24Z"/></g></g></svg>